# xmcd
#
# Track frame offsets:
#	150
#	15385
#	32255
#	48025
#	60466
#	76950
#	88478
#	98501
#	112804
#	128843
#	143952
#
# Disc length: 2118 seconds
# Revision: 0
# Processed by: cddbd v1.5.2PL0 Copyright (c) Steve Scherf et al.
# Submitted via: dBpowerAMP V12.0
#
DISCID=7908440b
DTITLE=The Gibson Brothers - Mockingbird
DYEAR=2018
DGENRE=Country
TTITLE0=Travelin' Day
TTITLE1=Cool Drink of Water
TTITLE2=Love the Land
TTITLE3=Sweet Lucinda
TTITLE4=Special One
TTITLE5=Lay Your Body Down
TTITLE6=So Much Lovei in My Baby's Eyes
TTITLE7=Come Down
TTITLE8=Everybody Hurts
TTITLE9=I'm a  Better Man
TTITLE10=Not Gonna Be Tonight
EXTD=
EXTT0=
EXTT1=
EXTT2=
EXTT3=
EXTT4=
EXTT5=
EXTT6=
EXTT7=
EXTT8=
EXTT9=
EXTT10=
PLAYORDER=
